<svg width="432.50498046875px" height="107.635009765625px" xmlns="http://www.w3.org/2000/svg" viewBox="33.74750976562501 21.1824951171875 432.50498046875 107.635009765625" style="background: none;" preserveAspectRatio="xMidYMid"><defs><filter id="editing-hover" x="-100%" y="-100%" width="300%" height="300%"><feFlood flood-color="rgba(100%,100%,100%,0)" result="flood"></feFlood><feComposite operator="in" in2="SourceAlpha" in="flood" result="shadow"></feComposite><feOffset dx="-4" dy="-4" in="SourceGraphic" result="offset-1"></feOffset><feOffset dx="4" dy="4" in="shadow" result="offset-2"></feOffset><feMerge><feMergeNode in="offset-2"></feMergeNode><feMergeNode in="offset-1"></feMergeNode></feMerge></filter></defs><g filter="url(#editing-hover)"><g transform="translate(97.45749044418335, 95.95999908447266)"><path d="M30.46-31.87L30.27-15.68L30.27-11.07L30.27-11.07Q30.34-5.63 26.98-2.62L26.98-2.62L26.98-2.62Q23.62 0.38 17.34 0.38L17.34 0.38L17.34 0.38Q11.14 0.38 7.87-2.59L7.87-2.59L7.87-2.59Q4.61-5.57 4.74-11.07L4.74-11.07L4.80-15.94L4.74-31.87L9.54-31.87L9.28-11.84L9.28-11.84Q9.22-7.81 11.30-5.76L11.30-5.76L11.30-5.76Q13.38-3.71 17.54-3.71L17.54-3.71L17.54-3.71Q21.63-3.71 23.74-5.76L23.74-5.76L23.74-5.76Q25.86-7.81 25.79-11.84L25.79-11.84L25.60-31.87L30.46-31.87ZM67.52-32L67.33-9.54L67.39 0L62.27 0L45.50-24.32L45.18-24.32L45.12-10.62L45.25 0L40.90 0L41.09-9.41L40.96-31.87L46.02-31.87L62.78-7.55L63.23-7.55L63.10-31.68L67.52-32ZM83.84-31.87L83.65-9.98L83.78 0L79.04 0L79.23-9.60L79.04-31.87L83.84-31.87ZM128.26 6.08L128.45 6.59L128.45 6.59Q127.30 8.64 126.27 9.54L126.27 9.54L125.89 9.66L125.89 9.66Q115.97 7.04 107.71 0.38L107.71 0.38L107.71 0.38Q107.20 0.45 106.11 0.45L106.11 0.45L106.11 0.45Q99.20 0.45 95.42-3.74L95.42-3.74L95.42-3.74Q91.65-7.94 91.65-15.68L91.65-15.68L91.65-15.68Q91.65-23.62 95.68-27.94L95.68-27.94L95.68-27.94Q99.71-32.26 107.07-32.26L107.07-32.26L107.07-32.26Q114.05-32.26 117.79-28.16L117.79-28.16L117.79-28.16Q121.54-24.06 121.54-16.58L121.54-16.58L121.54-16.58Q121.54-10.24 119.10-6.11L119.10-6.11L119.10-6.11Q116.67-1.98 112.06-0.45L112.06-0.45L112.06-0.45Q119.68 4.42 128.26 6.08L128.26 6.08ZM96.64-16.26L96.64-16.26Q96.64-9.60 99.07-6.59L99.07-6.59L99.07-6.59Q101.50-3.58 106.50-3.58L106.50-3.58L106.50-3.58Q111.62-3.58 114.11-6.53L114.11-6.53L114.11-6.53Q116.61-9.47 116.61-15.74L116.61-15.74L116.61-15.74Q116.61-22.21 114.14-25.22L114.14-25.22L114.14-25.22Q111.68-28.22 106.62-28.22L106.62-28.22L106.62-28.22Q101.57-28.22 99.10-25.34L99.10-25.34L99.10-25.34Q96.64-22.46 96.64-16.26L96.64-16.26ZM155.07-31.87L154.88-15.68L154.88-11.07L154.88-11.07Q154.94-5.63 151.58-2.62L151.58-2.62L151.58-2.62Q148.22 0.38 141.95 0.38L141.95 0.38L141.95 0.38Q135.74 0.38 132.48-2.59L132.48-2.59L132.48-2.59Q129.22-5.57 129.34-11.07L129.34-11.07L129.41-15.94L129.34-31.87L134.14-31.87L133.89-11.84L133.89-11.84Q133.82-7.81 135.90-5.76L135.90-5.76L135.90-5.76Q137.98-3.71 142.14-3.71L142.14-3.71L142.14-3.71Q146.24-3.71 148.35-5.76L148.35-5.76L148.35-5.76Q150.46-7.81 150.40-11.84L150.40-11.84L150.21-31.87L155.07-31.87ZM176.45-3.84L184.96-4.10L185.34-3.71L184.90 0L165.50 0L165.70-9.60L165.50-31.87L185.02-31.87L185.34-31.49L184.96-27.78L176.90-28.03L170.24-27.97L170.18-18.30L176.51-18.24L182.08-18.43L182.40-17.98L182.02-14.21L176.13-14.40L170.18-14.34L170.11-9.98L170.18-3.90L176.45-3.84ZM203.58-28.03L197.76-27.97L197.70-17.47L203.20-17.41L208.83-17.60L209.15-17.15L208.83-13.50L202.75-13.57L197.63-13.50L197.63-9.98L197.76 0L193.02 0L193.15-9.60L193.02-31.87L211.58-31.87L211.84-31.49L211.46-27.78L203.58-28.03ZM222.91-31.87L222.72-9.98L222.85 0L218.11 0L218.30-9.60L218.11-31.87L222.91-31.87ZM261.31-32L261.12-9.54L261.18 0L256.06 0L239.30-24.32L238.98-24.32L238.91-10.62L239.04 0L234.69 0L234.88-9.41L234.75-31.87L239.81-31.87L256.58-7.55L257.02-7.55L256.90-31.68L261.31-32ZM285.31-32.13L285.31-32.13Q292.61-32.13 296.48-28.22L296.48-28.22L296.48-28.22Q300.35-24.32 300.35-17.02L300.35-17.02L300.35-17.02Q300.35-8.64 296.13-4.16L296.13-4.16L296.13-4.16Q291.90 0.32 284.03 0.32L284.03 0.32L284.03 0.32Q281.79 0.32 278.69 0.22L278.69 0.22L278.69 0.22Q275.58 0.13 272.83 0L272.83 0L273.02-9.60L272.83-31.87L285.31-32.13ZM284.80-3.58L284.80-3.58Q289.92-3.58 292.70-6.69L292.70-6.69L292.70-6.69Q295.49-9.79 295.49-16.06L295.49-16.06L295.49-16.06Q295.49-22.21 292.86-25.15L292.86-25.15L292.86-25.15Q290.24-28.10 284.93-28.10L284.93-28.10L284.93-28.10Q281.79-28.10 277.57-27.84L277.57-27.84L277.44-9.98L277.50-3.97L277.50-3.97Q279.36-3.84 281.41-3.71L281.41-3.71L281.41-3.71Q283.46-3.58 284.80-3.58L284.80-3.58Z" fill="#ffffff"></path></g></g><style>text {
  font-size: 64px;
  font-family: Arial Black;
  dominant-baseline: central;
  text-anchor: middle;
}</style></svg>