<svg width="401.94189453125px" height="101.21335449218749px" xmlns="http://www.w3.org/2000/svg" viewBox="49.029052734375 24.393322753906254 401.94189453125 101.21335449218749" style="background-color: rgb(0, 0, 0); background-position: initial initial; background-repeat: initial initial;" preserveAspectRatio="xMidYMid"><defs><filter id="editing-extrude-glow"><feFlood flood-color="rgba(0%,0%,0%,0)" result="flood-1"></feFlood><feMorphology operator="erode" radius="1" in="SourceAlpha" result="erode"></feMorphology><feComposite operator="in" in="flood-1" in2="erode" result="comp1"></feComposite><feConvolveMatrix order="3,3" divisor="1" in="comp1" result="convolve" kernelMatrix="0 0 0 1 1 1 0 0 0"></feConvolveMatrix><feOffset dx="-3" dy="0" in="convolve" result="extrude"></feOffset><feComposite operator="in" in="flood-1" in2="extrude" result="comp-extrude"></feComposite><feFlood flood-color="#eb6c6c" result="flood-2"></feFlood><feComposite operator="in" in="flood-2" in2="SourceAlpha" result="comp2"></feComposite><feMorphology operator="dilate" radius="1" in="comp2" result="dilate"></feMorphology><feOffset dx="-4.5" dy="0" in="dilate" result="offset"></feOffset><feGaussianBlur in="offset" stdDeviation="5.8" result="blur"></feGaussianBlur><feComponentTransfer in="blur" result="shadow"><feFuncA type="linear" slope="0.8" intercept="-0.2"></feFuncA></feComponentTransfer><feMerge><feMergeNode in="shadow"></feMergeNode><feMergeNode in="comp-extrude"></feMergeNode><feMergeNode in="SourceGraphic"></feMergeNode></feMerge></filter></defs><g filter="url(#editing-extrude-glow)"><g transform="translate(85.58500099182129, 104.07343673706055)"><path d="M11.07-42.88L11.07-44.80L35.58-44.80L35.58-19.26L35.58-19.26Q35.58-9.02 32.06-4.19L32.06-4.19L32.06-4.19Q28.54 0.64 20.67 0.64L20.67 0.64L20.67 0.64Q12.80 0.64 9.28-4.19L9.28-4.19L9.28-4.19Q5.76-9.02 5.76-19.26L5.76-19.26L5.76-44.80L7.68-44.80L7.68-19.26L7.68-19.26Q7.68-13.95 8.58-10.34L8.58-10.34L8.58-10.34Q9.47-6.72 11.26-4.80L11.26-4.80L11.26-4.80Q13.06-2.88 15.30-2.08L15.30-2.08L15.30-2.08Q17.54-1.28 20.67-1.28L20.67-1.28L20.67-1.28Q23.81-1.28 26.05-2.08L26.05-2.08L26.05-2.08Q28.29-2.88 30.08-4.80L30.08-4.80L30.08-4.80Q31.87-6.72 32.77-10.34L32.77-10.34L32.77-10.34Q33.66-13.95 33.66-19.26L33.66-19.26L33.66-42.88L11.07-42.88ZM49.34 0L47.42 0L47.42-37.12L49.34-37.12L70.21-3.52L70.21-37.12L72.13-37.12L72.13 0L70.21 0L49.34-33.66L49.34 0ZM84.29 0L84.29-37.12L86.21-37.12L86.21 0L84.29 0ZM109.89 0.58L109.89 0.58L109.89 0.58Q102.91 0.13 99.87-4.45L99.87-4.45L99.87-4.45Q96.83-9.02 96.83-18.56L96.83-18.56L96.83-18.56Q96.83-28.67 100.32-33.22L100.32-33.22L100.32-33.22Q103.81-37.76 111.74-37.76L111.74-37.76L111.74-37.76Q119.68-37.76 123.17-33.22L123.17-33.22L123.17-33.22Q126.66-28.67 126.66-18.56L126.66-18.56L126.66-18.56Q126.66-5.76 120.83-1.66L120.83-1.66L119.74-3.20L119.74-3.20Q124.74-6.59 124.74-18.56L124.74-18.56L124.74-18.56Q124.74-23.87 123.84-27.36L123.84-27.36L123.84-27.36Q122.94-30.85 121.12-32.67L121.12-32.67L121.12-32.67Q119.30-34.50 117.12-35.17L117.12-35.17L117.12-35.17Q114.94-35.84 111.74-35.84L111.74-35.84L111.74-35.84Q108.54-35.84 106.37-35.17L106.37-35.17L106.37-35.17Q104.19-34.50 102.37-32.67L102.37-32.67L102.37-32.67Q100.54-30.85 99.65-27.36L99.65-27.36L99.65-27.36Q98.75-23.87 98.75-18.56L98.75-18.56L98.75-18.56Q98.75-13.25 99.65-9.76L99.65-9.76L99.65-9.76Q100.54-6.27 102.37-4.45L102.37-4.45L102.37-4.45Q104.19-2.62 106.37-1.95L106.37-1.95L106.37-1.95Q108.54-1.28 111.74-1.28L111.74-1.28L111.74-1.28Q111.74 5.82 114.02 8.35L114.02 8.35L114.02 8.35Q116.29 10.88 121.09 10.88L121.09 10.88L121.09 12.80L121.09 12.80Q115.90 12.80 113.09 10.24L113.09 10.24L113.09 10.24Q110.27 7.68 109.89 0.58ZM136.58-37.12L138.50-37.12L138.50-18.56L138.50-18.56Q138.50-9.02 141.54-5.15L141.54-5.15L141.54-5.15Q144.58-1.28 149.89-1.28L149.89-1.28L149.89-1.28Q155.20-1.28 158.24-5.15L158.24-5.15L158.24-5.15Q161.28-9.02 161.28-18.56L161.28-18.56L161.28-37.12L163.20-37.12L163.20-18.56L163.20-18.56Q163.20 0.64 149.89 0.64L149.89 0.64L149.89 0.64Q136.58 0.64 136.58-18.56L136.58-18.56L136.58-37.12ZM198.14-5.06L199.55-3.78L199.55-3.78Q196.03 0.64 188.03 0.64L188.03 0.64L188.03 0.64Q180.03 0.64 176.58-3.90L176.58-3.90L176.58-3.90Q173.12-8.45 173.12-18.56L173.12-18.56L173.12-18.56Q173.12-28.67 176.58-33.22L176.58-33.22L176.58-33.22Q180.03-37.76 188.03-37.76L188.03-37.76L188.03-37.76Q197.31-37.76 200.64-31.68L200.64-31.68L184.96-18.56L181.95-18.56L198.14-32.06L198.14-32.06Q195.33-35.84 188.03-35.84L188.03-35.84L188.03-35.84Q184.83-35.84 182.66-35.17L182.66-35.17L182.66-35.17Q180.48-34.50 178.66-32.67L178.66-32.67L178.66-32.67Q176.83-30.85 175.94-27.36L175.94-27.36L175.94-27.36Q175.04-23.87 175.04-18.56L175.04-18.56L175.04-18.56Q175.04-13.25 175.94-9.76L175.94-9.76L175.94-9.76Q176.83-6.27 178.66-4.45L178.66-4.45L178.66-4.45Q180.48-2.62 182.66-1.95L182.66-1.95L182.66-1.95Q184.83-1.28 188.03-1.28L188.03-1.28L188.03-1.28Q195.33-1.28 198.14-5.06L198.14-5.06ZM211.07 0L209.15 0L209.15-18.56L209.15-18.56Q209.15-28.67 212.64-33.22L212.64-33.22L212.64-33.22Q216.13-37.76 224.06-37.76L224.06-37.76L224.06-37.76Q233.34-37.76 236.67-31.68L236.67-31.68L223.30-20.48L236.93-20.48L236.93-18.56L217.98-18.56L234.18-32.06L234.18-32.06Q231.36-35.84 224.06-35.84L224.06-35.84L224.06-35.84Q220.86-35.84 218.69-35.17L218.69-35.17L218.69-35.17Q216.51-34.50 214.69-32.67L214.69-32.67L214.69-32.67Q212.86-30.85 211.97-27.36L211.97-27.36L211.97-27.36Q211.07-23.87 211.07-18.56L211.07-18.56L211.07 0ZM246.53 0L246.53-37.12L248.45-37.12L248.45 0L246.53 0ZM262.53 0L260.61 0L260.61-37.12L262.53-37.12L283.39-3.52L283.39-37.12L285.31-37.12L285.31 0L283.39 0L262.53-33.66L262.53 0ZM302.34 0L302.34 0L297.47 0L297.47-37.12L302.34-37.12L302.34-37.12Q311.81-37.12 317.44-32.13L317.44-32.13L317.44-32.13Q323.07-27.14 323.07-18.56L323.07-18.56L323.07-18.56Q323.07-9.98 317.44-4.99L317.44-4.99L317.44-4.99Q311.81 0 302.34 0ZM299.39-1.92L302.34-1.92L302.34-1.92Q310.98-1.92 316.06-6.34L316.06-6.34L316.06-6.34Q321.15-10.75 321.15-18.56L321.15-18.56L321.15-18.56Q321.15-26.37 316.06-30.78L316.06-30.78L316.06-30.78Q310.98-35.20 302.34-35.20L302.34-35.20L299.39-35.20L299.39-1.92Z" fill="#ffffff"></path></g></g><style>text {
  font-size: 64px;
  font-family: Arial Black;
  dominant-baseline: central;
  text-anchor: middle;
}</style></svg>